<svg width="121" height="121" viewBox="0 0 121 121" fill="none" xmlns="http://www.w3.org/2000/svg">
<circle cx="60.5" cy="60.5" r="60.5" fill="#516B71"/>
<g clip-path="url(#clip0_22_224)">
<path fill-rule="evenodd" clip-rule="evenodd" d="M57.5466 26.6448C57.5466 28.0623 58.6957 29.2114 60.1133 29.2114C61.5308 29.2114 62.6799 28.0623 62.6799 26.6448V21.5114C62.6799 20.0939 61.5308 18.9448 60.1133 18.9448C58.6957 18.9448 57.5466 20.0939 57.5466 21.5114V26.6448ZM82.9748 39.3126C81.9725 38.3103 81.9725 36.6852 82.9748 35.6828L86.6046 32.053C87.607 31.0507 89.2321 31.0507 90.2345 32.053C91.2368 33.0554 91.2368 34.6805 90.2345 35.6828L86.6046 39.3126C85.6023 40.315 83.9772 40.315 82.9748 39.3126ZM70.3799 85.6781C71.0606 85.6781 71.7135 85.4077 72.1948 84.9263C72.6762 84.445 72.9466 83.7922 72.9466 83.1114V74.9032H67.8133V80.5448H52.4133V74.9032H47.2799V83.1114C47.2799 83.7922 47.5503 84.445 48.0317 84.9263C48.513 85.4077 49.1659 85.6781 49.8466 85.6781H70.3799ZM39.9906 51.7981L39.9393 52.1574C39.549 54.8562 39.7071 57.606 40.4039 60.2423C41.1006 62.8787 42.3219 65.3474 43.9946 67.501C45.9607 70.042 47.2799 72.4649 47.2799 74.8981H52.4133C52.4133 70.6763 50.168 67.085 48.0543 64.3599L48.0551 64.3594C46.8034 62.7486 45.8849 60.9017 45.3644 58.9293C44.844 56.957 44.7273 54.8947 45.0213 52.8761L45.0777 52.5168C45.5955 48.897 47.3966 45.5855 50.1595 43.1904C52.9224 40.7952 56.4567 39.4771 60.1133 39.4781C63.7696 39.4782 67.3032 40.7966 70.0659 43.1916C72.8287 45.5866 74.6351 48.8975 75.1539 52.5168L75.2001 52.8761L80.2873 52.1574L75.2053 52.8812C75.4993 54.8998 75.3825 56.957 74.8621 58.9293C74.342 60.9004 73.4294 62.7462 72.1791 64.3562L72.1766 64.3542C70.0565 67.0852 67.8133 70.6734 67.8133 74.8981H72.9466C72.9466 72.4649 74.2659 70.042 76.2319 67.501C79.4659 63.3224 81.0983 57.8811 80.2873 52.1574L80.2359 51.7981C79.545 46.9537 77.1293 42.5213 73.4327 39.315C69.7361 36.1088 65.0067 34.3439 60.1133 34.3448C55.2199 34.3439 50.4905 36.1088 46.7938 39.315C43.0972 42.5213 40.6815 46.9537 39.9906 51.7981ZM52.4132 93.3781C52.4132 91.9606 53.5624 90.8114 54.9799 90.8114H65.2466C66.6641 90.8114 67.8132 91.9606 67.8132 93.3781C67.8132 94.7956 66.6641 95.9448 65.2466 95.9448H54.9799C53.5624 95.9448 52.4132 94.7956 52.4132 93.3781ZM90.9132 54.8781C89.4957 54.8781 88.3466 56.0272 88.3466 57.4448C88.3466 58.8623 89.4957 60.0114 90.9132 60.0114H96.0466C97.4641 60.0114 98.6133 58.8623 98.6133 57.4448C98.6133 56.0272 97.4641 54.8781 96.0466 54.8781H90.9132ZM21.6133 57.4448C21.6133 56.0272 22.7624 54.8781 24.1799 54.8781H29.3133C30.7308 54.8781 31.8799 56.0272 31.8799 57.4448C31.8799 58.8623 30.7308 60.0114 29.3133 60.0114H24.1799C22.7624 60.0114 21.6133 58.8623 21.6133 57.4448ZM33.218 32.053C32.2156 31.0507 30.5905 31.0507 29.5881 32.053C28.5858 33.0553 28.5858 34.6805 29.5881 35.6828L33.218 39.3126C34.2203 40.315 35.8454 40.315 36.8478 39.3126C37.8501 38.3103 37.8501 36.6852 36.8478 35.6828L33.218 32.053Z" fill="#F9FFFF"/>
</g>
<defs>
<clipPath id="clip0_22_224">
<rect width="83" height="83" fill="white" transform="translate(19 19)"/>
</clipPath>
</defs>
</svg>
