<svg width="121" height="121" viewBox="0 0 121 121" fill="none" xmlns="http://www.w3.org/2000/svg">
<circle cx="60.5" cy="60.5" r="60.5" fill="#516B71"/>
<path fill-rule="evenodd" clip-rule="evenodd" d="M84.3992 58.5989C84.3992 71.3712 74.0452 81.7251 61.273 81.7251C48.5007 81.7251 38.1468 71.3712 38.1468 58.5989C38.1468 45.8267 48.5007 35.4727 61.273 35.4727C74.0452 35.4727 84.3992 45.8267 84.3992 58.5989ZM79.3604 80.3202C74.4589 84.4062 68.153 86.8643 61.273 86.8643C45.6624 86.8643 33.0076 74.2094 33.0076 58.5989C33.0076 42.9884 45.6624 30.3336 61.273 30.3336C76.8835 30.3336 89.5383 42.9884 89.5383 58.5989C89.5383 65.479 87.0802 71.7849 82.9943 76.6863L93.9249 87.6169C94.9284 88.6204 94.9284 90.2474 93.9249 91.2508C92.9214 92.2543 91.2945 92.2543 90.291 91.2508L79.3604 80.3202Z" fill="#F9FFFF"/>
</svg>
