<svg width="121" height="121" viewBox="0 0 121 121" fill="none" xmlns="http://www.w3.org/2000/svg">
<circle cx="60.5" cy="60.5" r="60.5" fill="#516B71"/>
<path d="M58.5989 86.9773V94.573C58.5989 95.2545 58.8696 95.9081 59.3515 96.39C59.8334 96.8719 60.487 97.1426 61.1685 97.1426C61.85 97.1426 62.5036 96.8719 62.9855 96.39C63.4674 95.9081 63.7381 95.2545 63.7381 94.573V86.9773C68.568 86.4802 73.1502 84.5933 76.9298 81.5453C80.7094 78.4973 83.5242 74.4188 85.0333 69.8039C86.5425 65.1889 86.6812 60.2353 85.4328 55.5431C84.1843 50.8509 81.6023 46.6213 77.9992 43.3664L65.4751 32.0603C64.2944 30.9935 62.7598 30.4029 61.1685 30.4029C59.5772 30.4029 58.0426 30.9935 56.8619 32.0603L44.3378 43.3664C40.7347 46.6213 38.1526 50.8509 36.9042 55.5431C35.6558 60.2353 35.7945 65.1889 37.3037 69.8039C38.8128 74.4188 41.6276 78.4973 45.4072 81.5453C49.1867 84.5933 53.769 86.4802 58.5989 86.9773ZM74.5509 47.1797C77.3825 49.738 79.4218 53.0541 80.4275 56.7353C81.4332 60.4166 81.363 64.3089 80.2254 67.9516C79.0878 71.5942 76.9303 74.8347 74.0084 77.2893C71.0864 79.744 67.5224 81.3101 63.7381 81.8022V58.604C63.7381 57.9226 63.4674 57.269 62.9855 56.7871C62.5036 56.3052 61.85 56.0345 61.1685 56.0345C60.487 56.0345 59.8334 56.3052 59.3515 56.7871C58.8696 57.269 58.5989 57.9226 58.5989 58.604V81.8022C54.8142 81.3109 51.2495 79.7454 48.3269 77.2911C45.4043 74.8368 43.2461 71.5964 42.1079 67.9536C40.9697 64.3108 40.8991 60.4181 41.9045 56.7365C42.9099 53.0548 44.9492 49.7383 47.781 47.1797L60.3051 35.8736C60.5415 35.659 60.8493 35.5402 61.1685 35.5402C61.4877 35.5402 61.7955 35.659 62.0319 35.8736L74.556 47.1797H74.5509Z" fill="#F9FFFF"/>
</svg>
