<svg width="53" height="50" viewBox="0 0 53 50" fill="none" xmlns="http://www.w3.org/2000/svg">
<path d="M22.3851 0C22.9337 1.87266 23.2081 3.43321 23.2081 4.68165C23.2081 5.80525 23.0435 7.30337 22.7143 9.17603C15.3623 9.17603 11.6863 13.4831 11.6863 22.0974C11.6863 25.2185 13.1128 26.9663 15.9658 27.3408C20.1356 27.7154 22.2205 30.774 22.2205 36.5169C22.2205 40.8864 21.2878 44.2572 19.4224 46.6292C17.6667 48.8764 14.4296 50 9.71118 50C3.23706 50 0 45.0062 0 35.0187C0 25.0312 1.75569 16.7291 5.26708 10.1124C8.77847 3.37079 14.4845 0 22.3851 0ZM52.177 0C52.7257 1.87266 53 3.43321 53 4.68165C53 5.80525 52.8354 7.30337 52.5062 9.17603C45.1542 9.17603 41.4783 13.4831 41.4783 22.0974C41.4783 25.2185 42.9048 26.9663 45.7578 27.3408C49.9275 27.7154 52.0124 30.774 52.0124 36.5169C52.0124 40.8864 51.0797 44.2572 49.2143 46.6292C47.4586 48.8764 44.2215 50 39.5031 50C33.029 50 29.7919 45.0062 29.7919 35.0187C29.7919 25.0312 31.5476 16.7291 35.059 10.1124C38.5704 3.37079 44.2764 0 52.177 0Z" fill="#DFF0F0"/>
</svg>
