<svg width="112" height="105" viewBox="0 0 112 105" fill="none" xmlns="http://www.w3.org/2000/svg">
<path d="M47.3044 0C48.4638 3.93258 49.0435 7.20974 49.0435 9.83147C49.0435 12.191 48.6957 15.3371 48 19.2697C32.4638 19.2697 24.6957 28.3146 24.6957 46.4045C24.6957 52.9588 27.7101 56.6292 33.7391 57.4157C42.5507 58.2022 46.9565 64.6255 46.9565 76.6854C46.9565 85.8614 44.9855 92.9401 41.0435 97.9213C37.3333 102.64 30.4928 105 20.5217 105C6.84058 105 0 94.5131 0 73.5393C0 52.5655 3.71014 35.1311 11.1304 21.236C18.5507 7.07866 30.6087 0 47.3044 0ZM110.261 0C111.42 3.93258 112 7.20974 112 9.83147C112 12.191 111.652 15.3371 110.957 19.2697C95.4203 19.2697 87.6522 28.3146 87.6522 46.4045C87.6522 52.9588 90.6667 56.6292 96.6957 57.4157C105.507 58.2022 109.913 64.6255 109.913 76.6854C109.913 85.8614 107.942 92.9401 104 97.9213C100.29 102.64 93.4493 105 83.4783 105C69.7971 105 62.9565 94.5131 62.9565 73.5393C62.9565 52.5655 66.6667 35.1311 74.087 21.236C81.5072 7.07866 93.5652 0 110.261 0Z" fill="#FFE48F"/>
</svg>
