<svg width="467" height="464" viewBox="0 0 467 464" fill="none" xmlns="http://www.w3.org/2000/svg">
<path d="M100.747 83.6548L100.766 83.6642L100.747 83.6548Z" fill="#5D8076"/>
<path d="M210.148 8.02445L209.887 7.77399L209.47 7.57169C204.973 4.6143 200.04 2.495 194.796 1.25232L194.263 1.07892H194.05C190.784 0.356428 187.421 0 184.058 0C171.333 0 159.13 5.25973 150.417 14.4594C148.343 14.97 146.337 15.6732 144.428 16.5787C143.682 16.8677 143.1 17.1375 142.645 17.4072C141.54 18.0719 140.454 18.7847 139.446 19.5169C139.049 19.8059 138.642 20.1141 138.225 20.4416L138.051 20.5765C137.983 20.6343 137.915 20.6825 137.857 20.7306C137.789 20.7884 137.711 20.8462 137.644 20.904C124.405 23.4376 112.329 30.4698 103.567 40.7484C98.1494 47.1063 94.0982 54.6299 91.7915 62.635C82.0221 62.7217 72.5435 66.2186 65.0711 72.5091C58.1317 78.3564 53.2761 86.2749 51.2505 95.0026C44.3111 96.1393 37.9533 99.5687 33.1655 104.771C27.8447 110.551 24.9177 118.064 24.9177 125.906C24.9177 128.314 25.1988 130.713 25.7416 133.044L26.672 137.003L30.7425 136.618C38.5154 135.886 45.7068 132.312 50.9888 126.571C52.2197 125.241 53.3149 123.815 54.284 122.303C55.4761 124.779 56.9105 127.149 58.5678 129.345C50.5915 131.58 43.1093 135.481 36.7127 140.77C28.1451 147.85 21.7679 157.117 18.2788 167.55C18.2207 167.714 18.1722 167.868 18.1335 168.003C16.2242 173.87 15.2453 179.996 15.2453 186.229C15.2453 195.669 17.5326 205.062 21.8648 213.395C25.412 220.215 30.3355 226.332 36.2572 231.312C29.0659 234.539 22.9018 239.597 18.2304 246.138L16.8347 248.17V248.209C16.4762 248.777 16.1272 249.355 15.788 249.953L14.5281 250.627V250.752C9.11034 254.201 4.81685 259.297 2.35513 265.25C-0.523354 272.215 -0.775342 279.989 1.63793 287.127C2.41328 289.42 3.4503 291.607 4.71024 293.639L6.86184 297.088L10.5932 295.431C12.1924 294.718 13.7334 293.88 15.1774 292.926C19.0348 300.113 24.8111 306.162 31.8474 310.343C29.1434 316.181 27.7187 322.596 27.7187 329.051C27.7187 340.63 32.1673 351.602 40.2599 359.973C47.6839 367.651 57.4436 372.39 67.9786 373.469C67.9883 374.751 68.0465 376.041 68.1434 377.303L68.1531 377.409C68.88 386.59 72.0007 395.481 77.1762 403.14C87.2945 418.11 104.149 427.049 122.282 427.049C122.553 427.049 122.815 427.049 123.086 427.04C126.682 437.472 133.292 446.451 142.276 453.107C151.871 460.207 163.24 463.954 175.17 463.954C205.535 463.954 230.24 439.399 230.24 409.218V45.9022C230.24 30.7395 222.738 16.598 210.148 8.02445ZM211.757 416.857C210.691 414.699 209.373 412.667 207.842 410.817L205.244 407.677L201.765 409.806C195.116 413.871 190.251 420.229 188.061 427.704C185.861 435.228 186.558 443.252 190.047 450.285C190.319 450.824 190.6 451.354 190.9 451.884C185.87 453.724 180.588 454.658 175.161 454.658C165.362 454.658 156 451.604 148.082 445.815C141.055 440.68 135.754 433.841 132.614 425.874C140.677 424.179 148.285 420.643 154.808 415.566C166.719 406.299 174.027 392.948 175.403 377.978C175.548 376.369 175.626 374.741 175.626 373.152C175.645 366.331 174.376 359.665 171.866 353.326C171.022 345.639 167.349 338.559 161.515 333.386C155.738 328.261 148.285 325.438 140.542 325.438C140.416 325.438 140.29 325.438 140.154 325.438C137.731 325.467 135.318 325.775 132.982 326.344L129.008 327.317L129.444 331.363C130.278 339.079 133.951 346.179 139.795 351.361C145.572 356.486 153.025 359.309 160.768 359.309C160.894 359.309 161.02 359.309 161.156 359.309C162.106 359.299 163.065 359.241 164.025 359.145C165.517 363.653 166.273 368.345 166.264 373.132C166.264 374.452 166.196 375.801 166.08 377.13C164.946 389.518 158.888 400.568 149.032 408.236C142.267 413.505 134.184 416.722 125.665 417.532L123.862 417.705C123.329 417.724 122.796 417.734 122.272 417.734C116.002 417.734 109.847 416.424 104.178 413.948C109.77 413.621 115.168 411.944 119.927 409.045L120.664 408.929C128.378 407.725 135.337 403.727 140.26 397.678C145.213 391.58 147.684 383.912 147.2 376.09C147.054 373.691 146.628 371.312 145.94 369.009L144.767 365.117L140.726 365.744C136.345 366.428 132.236 367.988 128.514 370.387C118.997 376.523 113.501 387.332 114.189 398.593C114.248 399.537 114.354 400.491 114.5 401.435C110.758 403.583 106.523 404.71 102.142 404.71C95.5519 404.71 89.3685 402.176 84.6971 397.572C80.7234 391.57 78.2714 384.663 77.5542 377.544C81.6926 380.28 86.4707 382.043 91.4717 382.602C92.6541 382.737 93.8656 382.804 95.0577 382.804C101.726 382.804 108.113 380.742 113.53 376.841C115.488 375.425 117.281 373.797 118.861 371.986L121.545 368.913L118.841 365.859C113.685 360.041 106.552 356.342 98.7696 355.465C90.9386 354.579 83.0979 356.621 76.711 361.226C75.3929 362.179 74.1427 363.229 72.9796 364.376H72.6501C53.0338 364.376 37.081 348.519 37.081 329.022C37.081 326.132 37.4299 323.29 38.118 320.525C40.1436 323.358 42.6344 325.853 45.4935 327.895C50.8725 331.719 57.211 333.742 63.8305 333.742C64.7706 333.742 65.7301 333.704 66.6702 333.617C69.0738 333.395 71.458 332.904 73.7453 332.153L77.6317 330.881L76.8758 326.883C75.4414 319.254 71.2157 312.462 64.9839 307.752C58.7132 303.003 50.9307 300.777 43.0609 301.49C41.045 301.673 39.0388 302.049 37.1004 302.608C30.5778 298.86 25.412 293.157 22.3591 286.356C22.3979 286.308 22.4366 286.26 22.4754 286.212C22.6886 285.942 22.9018 285.672 23.1054 285.393C23.1441 285.335 23.1829 285.287 23.2217 285.229L23.2604 285.172C23.4155 284.96 23.5609 284.748 23.716 284.536C23.7741 284.459 23.8226 284.382 23.871 284.305L23.9389 284.199C24.0552 284.025 24.1715 283.852 24.2878 283.669C24.3556 283.572 24.4138 283.466 24.4719 283.37L24.5398 283.255C24.6367 283.1 24.7336 282.937 24.8305 282.783C24.8887 282.686 24.9468 282.58 25.005 282.484L25.0534 282.397C25.1504 282.224 25.2473 282.06 25.3442 281.887C25.4217 281.752 25.4896 281.617 25.5671 281.472C25.6543 281.299 25.7512 281.135 25.8385 280.962C25.9063 280.827 25.9742 280.682 26.042 280.548C26.1292 280.374 26.2068 280.201 26.294 280.027C26.3618 279.883 26.4297 279.748 26.4878 279.604C26.5654 279.43 26.6429 279.247 26.7204 279.064C26.7786 278.92 26.8367 278.785 26.8949 278.65C26.9724 278.467 27.0403 278.274 27.1178 278.091L27.1275 278.053C27.176 277.927 27.2244 277.792 27.2729 277.677C27.3407 277.484 27.4086 277.292 27.4764 277.099L27.5055 277.022C27.5442 276.916 27.583 276.81 27.6218 276.694C27.6896 276.492 27.7575 276.28 27.8156 276.087L27.8447 275.991C27.8738 275.895 27.9028 275.798 27.9319 275.702C27.9998 275.481 28.0579 275.259 28.1258 275.018L28.1548 274.922C28.1742 274.845 28.1936 274.777 28.213 274.7C28.3002 274.363 28.3874 274.026 28.465 273.679C29.0174 271.232 29.2791 268.708 29.2209 266.185C29.1531 263.006 28.6007 259.865 27.583 256.85C27.3019 256.012 26.9724 255.174 26.6235 254.365L26.546 254.191C26.4491 253.979 26.3618 253.777 26.2649 253.575C26.2358 253.517 26.2068 253.459 26.1777 253.401V251.08C31.2175 244.269 38.467 239.491 46.7244 237.574C46.7341 237.574 46.7341 237.574 46.7438 237.574C47.8584 237.574 48.9729 237.661 50.0681 237.824C57.7828 238.98 64.383 244.221 67.3002 251.398C59.4886 258.988 56.1837 270.076 58.6551 280.779C59.5661 284.709 61.2137 288.399 63.5592 291.732C64.9451 293.707 66.5636 295.518 68.3566 297.117L71.3999 299.833L74.5109 297.194C80.452 292.165 84.2803 285.143 85.298 277.417C86.3156 269.643 84.3869 261.83 79.8608 255.405C79.1049 254.336 78.2811 253.305 77.3991 252.342C76.0616 246.735 73.1929 241.62 69.0641 237.506C64.257 232.709 58.1705 229.646 51.454 228.644C50.2813 228.471 49.0698 228.355 47.8487 228.316C47.7614 228.268 47.6839 228.21 47.5967 228.153C33.2624 218.982 24.6658 203.434 24.5785 186.528C25.7706 188.117 27.1081 189.591 28.591 190.94C34.4061 196.228 41.9657 199.137 49.8549 199.137C52.2778 199.137 54.6911 198.858 57.0365 198.319L61.0199 197.394L60.6322 193.348C59.8956 185.622 56.3 178.474 50.5236 173.224C44.7279 167.955 37.2167 165.046 29.3566 165.026C32.4677 158.476 37.0132 152.638 42.6635 147.976C49.9712 141.936 58.7908 138.111 68.1822 136.907L69.1223 136.782C71.9911 136.531 74.8986 136.531 77.7674 136.772C84.7843 137.36 91.4523 139.354 97.5775 142.677C102.152 145.163 106.261 148.313 109.838 152.05C103.005 156.279 97.1511 161.992 92.7898 168.735C87.1588 177.434 84.1834 187.52 84.1834 197.904C84.1834 201.276 84.5032 204.657 85.1235 207.952C87.2654 219.242 93.0805 229.665 101.571 237.478C99.5935 244.182 99.9424 251.369 102.579 257.9C105.515 265.173 111.049 271.059 118.153 274.459C120.334 275.5 122.631 276.299 124.976 276.82L128.969 277.706L130.384 273.891C134.843 261.878 131.363 248.113 121.72 239.616C119.549 237.699 117.116 236.1 114.48 234.838C113.501 234.366 112.484 233.942 111.447 233.576C103.994 227.989 98.4789 220.263 95.6682 211.535C107.841 211.767 119.113 216.728 127.496 225.571C133.399 231.794 137.353 239.501 138.933 247.853C139.446 250.579 139.718 253.382 139.718 256.176C139.718 262.745 138.312 269.074 135.55 274.989C133.903 278.515 131.78 281.819 129.241 284.834C122.805 283.967 116.157 285.123 110.342 288.158C104.032 291.452 98.9925 296.808 96.1431 303.234C95.707 304.216 95.3097 305.257 94.9607 306.336C94.2242 308.638 93.7493 311.017 93.5651 313.387L93.2453 317.433L97.2383 318.3C99.4287 318.772 101.677 319.013 103.916 319.013C109.402 319.013 114.819 317.568 119.597 314.842C126.44 310.94 131.528 304.679 133.922 297.203C134.426 295.614 134.814 293.986 135.066 292.348C138.729 288.322 141.743 283.804 144.04 278.9C147.384 271.753 149.08 264.104 149.08 256.166C149.08 252.794 148.76 249.413 148.14 246.119C146.221 236.013 141.443 226.698 134.319 219.174C131.247 215.928 127.855 213.125 124.201 210.774L124.618 210.476C130.898 205.871 135.221 199.137 136.781 191.508C138.351 183.83 136.975 175.893 132.924 169.169C131.673 167.107 130.2 165.19 128.524 163.466L128.281 163.215C127.806 162.098 127.293 161 126.75 159.94C124.928 156.328 122.728 152.888 120.189 149.7C115.197 143.438 109.101 138.323 102.084 134.499C94.8057 130.539 86.8971 128.179 78.5718 127.476C75.4704 127.216 72.3303 127.197 69.2289 127.418C63.0552 121.349 59.5467 113.017 59.5467 104.366C59.5467 87.0648 73.251 72.8944 90.4346 71.9985C90.4443 74.8788 90.6866 77.7688 91.1518 80.6106L90.7739 81.3716C87.2751 88.3075 86.4998 96.2549 88.5932 103.759C90.6963 111.312 95.5423 117.766 102.23 121.937C104.284 123.218 106.484 124.259 108.752 125.029L112.619 126.349L114.451 122.717C115.188 121.263 115.808 119.75 116.302 118.209C125.015 123.613 135.24 126.551 145.513 126.551C157.163 126.551 168.251 122.997 177.642 116.263C184.794 116.176 191.763 113.633 197.307 109.077C203.364 104.096 207.309 97.093 208.414 89.3575C208.753 86.9781 208.821 84.5602 208.607 82.1712L208.249 78.1252L204.169 77.9326C201.397 77.8073 198.625 78.0385 195.94 78.6358C195.746 78.6743 195.543 78.7225 195.349 78.7706L195.32 78.7128L193.73 79.2041C193.507 79.2716 193.285 79.339 193.062 79.4161L193.033 79.4257C192.664 79.5413 192.296 79.6665 191.918 79.8014C191.618 79.9074 191.327 80.023 191.046 80.1386L190.929 80.1771L190.842 80.2156C190.784 80.2445 190.726 80.2638 190.668 80.2927L190.542 80.3409C190.493 80.3601 190.445 80.3794 190.387 80.4083L190.28 80.4565C181.422 84.223 174.889 91.6599 172.35 100.879C172.34 100.908 172.34 100.927 172.331 100.956C172.263 101.206 172.195 101.457 172.137 101.707C172.079 101.938 172.021 102.179 171.972 102.42L171.914 102.7C171.846 103.027 171.788 103.306 171.74 103.557C171.73 103.586 171.73 103.615 171.72 103.644C171.643 104.067 171.584 104.453 171.526 104.819C171.468 105.252 171.41 105.705 171.362 106.216L171.342 106.428C171.303 106.861 171.274 107.314 171.245 107.767L171.236 108.017C171.216 108.489 171.207 108.932 171.207 109.366V109.385C163.627 114.539 154.769 117.246 145.504 117.246C135.492 117.246 125.694 113.941 117.756 107.921C117.756 107.853 117.756 107.786 117.746 107.728L117.737 107.352C117.727 107.092 117.708 106.832 117.688 106.582L117.678 106.418C117.659 106.119 117.63 105.811 117.601 105.503L117.582 105.3C117.562 105.146 117.552 104.992 117.523 104.828L117.504 104.655C117.485 104.52 117.465 104.376 117.446 104.241C117.426 104.096 117.407 103.961 117.378 103.827L117.368 103.778C117.349 103.653 117.33 103.528 117.31 103.432L117.291 103.335C117.252 103.094 117.204 102.854 117.155 102.622L116.855 101.168L116.826 101.139C115.12 94.3283 111.146 88.2497 105.573 83.9629C104.798 83.3657 103.974 82.7877 103.131 82.2579L102.821 82.0652C102.675 81.9785 102.52 81.8822 102.375 81.7955C102.239 81.7184 102.113 81.6413 102.007 81.5835L101.629 81.3716C101.551 81.3234 101.464 81.2753 101.386 81.2367C101.251 81.1597 101.115 81.0922 100.979 81.0152L100.727 80.8803H100.718C100.708 80.8803 100.698 80.8707 100.689 80.8707C100.088 77.9133 99.7776 74.8692 99.7776 71.8155C99.7776 70.8233 99.8067 69.8118 99.8745 68.8195L99.9617 68.4342C101.677 60.4965 105.389 53.0115 110.691 46.7884C115.624 40.9989 121.73 36.4616 128.611 33.4272C126.74 38.1378 126.043 43.253 126.614 48.3586C126.886 50.7477 127.428 53.1078 128.233 55.362L129.599 59.196L133.602 58.3675C141.239 56.7781 147.995 52.4431 152.598 46.1526C157.241 39.814 159.315 32.04 158.442 24.2275C158.336 23.2738 158.181 22.3298 157.997 21.405C157.919 21.01 157.832 20.6439 157.745 20.2875C160.206 17.7925 163.017 15.6732 166.06 13.9778C164.248 16.6269 162.862 19.565 161.999 22.6862C161.292 25.239 160.933 27.8881 160.933 30.5565C160.933 34.7469 161.796 38.7832 163.492 42.5787C163.569 43.648 163.695 44.698 163.879 45.6999C164.035 46.5861 164.238 47.4724 164.471 48.3394C164.587 48.7632 164.713 49.2064 164.849 49.6302C167.824 59.0419 175.19 66.6039 184.552 69.8599C186.277 70.4668 188.08 70.9196 189.892 71.2086C189.97 71.2182 190.047 71.2279 190.125 71.2471L190.203 71.2568C192.073 71.5361 193.934 71.6613 195.775 71.6132L196.134 71.6036C196.444 71.5939 196.754 71.5746 197.093 71.5554L201.183 71.2857L201.455 67.2204C201.513 66.3342 201.532 65.4479 201.523 64.5713C201.455 60.7566 200.679 57.0093 199.226 53.4353L199.206 53.3872C199.042 52.9922 198.867 52.5876 198.644 52.1156L198.625 52.0674C198.596 51.9904 198.557 51.9229 198.528 51.8555C194.787 43.9466 188.158 38.1186 179.852 35.4309L179.823 35.4213C179.803 35.4116 179.794 35.4116 179.774 35.402L179.706 35.3827C179.377 35.2768 179.047 35.1804 178.708 35.0841L178.485 35.0263C178.204 34.9492 177.923 34.8722 177.642 34.8047L177.584 34.7951C177.497 34.7758 177.409 34.7469 177.322 34.7277C177.051 34.6602 176.779 34.6024 176.508 34.5446L176.411 34.5254C176.334 34.5061 176.266 34.4965 176.188 34.4772C175.82 34.4001 175.442 34.3327 175.064 34.2749C174.773 34.2267 174.473 34.1882 174.182 34.1497L173.93 34.1208C173.717 34.0919 173.513 34.0726 173.3 34.0437C173.232 34.0341 173.155 34.0341 173.087 34.0244L172.951 34.0148C172.777 33.9955 172.592 33.9859 172.408 33.9666L172.04 33.9474C171.866 33.9377 171.701 33.9281 171.517 33.9185L171.187 33.9088C171.003 33.8992 170.819 33.8992 170.635 33.8896C170.615 33.8896 170.596 33.8896 170.577 33.8896C170.402 32.8107 170.315 31.7029 170.315 30.595C170.315 28.7551 170.557 26.944 171.042 25.1908C173.474 16.415 181.577 10.2786 190.745 10.2786C191.356 10.2786 191.966 10.3075 192.567 10.3653L192.8 10.4424H192.965C196.958 11.425 200.718 13.0626 204.159 15.3072L204.401 15.548L204.808 15.7406C214.868 22.5802 220.858 33.8607 220.858 45.96V130.077C220.645 129.875 220.441 129.672 220.228 129.47L220.528 128.805L217.049 126.667C210.41 122.582 202.521 121.099 194.816 122.496C187.062 123.902 180.162 128.112 175.384 134.364C173.92 136.281 172.68 138.362 171.691 140.548L170.024 144.257L173.503 146.396C178.475 149.459 184.203 151.077 190.057 151.077C191.957 151.077 193.866 150.904 195.746 150.567C203.5 149.16 210.4 144.951 215.178 138.699C215.324 138.506 215.469 138.313 215.605 138.121C218.978 142.09 220.868 147.118 220.868 152.349V212.942C213.57 202.278 202.56 194.379 189.863 191.036C189.485 190.94 189.107 190.843 188.729 190.747C187.276 184.437 183.854 178.667 178.96 174.342C173.087 169.149 165.517 166.327 157.638 166.423C155.215 166.452 152.802 166.76 150.466 167.329L146.502 168.302L146.938 172.338C148.237 184.389 156.543 194.706 168.115 198.627L168.851 198.868H168.871C171.904 199.812 175.054 200.284 178.262 200.284C178.388 200.284 178.514 200.284 178.65 200.284C180.889 200.255 183.118 199.995 185.279 199.504C186.035 199.658 186.772 199.831 187.479 200.024C207.144 205.197 220.877 222.951 220.877 243.2V315.42C219.763 317.298 218.416 319.013 216.845 320.535C212.387 324.87 206.495 327.365 200.253 327.548H200.224C199.982 327.558 199.749 327.558 199.507 327.558C185.832 327.558 174.705 316.499 174.705 302.906C174.705 299.853 175.258 296.885 176.353 294.073C177.06 292.242 177.981 290.499 179.115 288.88C179.26 288.803 179.396 288.717 179.532 288.639C179.648 288.572 179.774 288.495 179.89 288.428C180.026 288.341 180.162 288.264 180.307 288.167C180.423 288.09 180.54 288.023 180.646 287.946C180.782 287.859 180.918 287.772 181.053 287.676C181.17 287.599 181.286 287.522 181.393 287.445C181.528 287.349 181.654 287.262 181.79 287.166L181.829 287.137C181.926 287.069 182.032 286.992 182.129 286.925C182.246 286.838 182.372 286.751 182.488 286.655L182.517 286.636C182.633 286.549 182.74 286.462 182.846 286.385C182.963 286.289 183.089 286.193 183.224 286.087L183.283 286.039C183.37 285.961 183.467 285.894 183.554 285.827C183.67 285.73 183.787 285.634 183.903 285.538L183.951 285.499C184.048 285.422 184.145 285.335 184.232 285.258C184.339 285.162 184.446 285.066 184.552 284.969L184.639 284.892C184.727 284.815 184.814 284.738 184.901 284.651C184.998 284.565 185.095 284.468 185.192 284.382L185.347 284.237C185.415 284.17 185.492 284.102 185.56 284.035C185.657 283.938 185.764 283.833 185.861 283.736L185.977 283.621C186.054 283.544 186.122 283.476 186.2 283.399C186.297 283.293 186.403 283.187 186.5 283.081L186.626 282.946C186.694 282.879 186.752 282.811 186.81 282.744C186.907 282.638 186.995 282.532 187.091 282.436L187.247 282.262C187.305 282.204 187.353 282.137 187.411 282.079C187.508 281.964 187.605 281.848 187.702 281.732L187.838 281.569C187.886 281.511 187.935 281.453 187.983 281.386C188.099 281.241 188.216 281.097 188.332 280.943L188.419 280.827C188.458 280.779 188.497 280.721 188.536 280.673C188.72 280.432 188.894 280.191 189.069 279.95C195.388 271.184 196.745 259.981 192.693 249.981C191.792 247.766 190.639 245.637 189.253 243.672L186.907 240.339L183.273 242.207C176.343 245.772 171.013 251.754 168.27 259.046C165.508 266.387 165.614 274.44 168.561 281.713C169.055 282.937 169.636 284.141 170.295 285.306C169.229 287.04 168.338 288.861 167.611 290.74C166.109 294.622 165.343 298.716 165.343 302.916C165.343 311.383 168.502 319.495 174.25 325.756C178.912 330.852 184.959 334.378 191.588 335.948C189.447 339.57 187.993 343.558 187.324 347.72C182.265 353.269 179.386 360.426 179.202 367.959C179.008 375.791 181.751 383.372 186.936 389.287C188.526 391.108 190.329 392.736 192.277 394.133L195.591 396.512L198.412 393.564C202.976 388.786 205.865 382.794 206.766 376.253C207.997 367.304 205.283 358.259 199.313 351.448C198.479 350.504 197.588 349.598 196.648 348.751C197.462 344.31 199.516 340.11 202.569 336.728C209.295 336.141 215.663 333.578 220.897 329.407V409.295C220.897 417.252 218.852 424.882 215.014 431.606C215.13 426.5 214.044 421.472 211.757 416.857ZM93.5748 197.866C93.5748 189.273 96.0365 180.931 100.689 173.735C104.498 167.849 109.654 162.926 115.692 159.381C116.68 160.913 117.591 162.483 118.405 164.092C118.667 164.612 118.919 165.142 119.171 165.672C114.645 170.045 111.505 175.729 110.245 181.904C108.675 189.581 110.051 197.519 114.102 204.243C114.49 204.888 114.907 205.524 115.343 206.141C108.927 203.54 101.997 202.182 94.8154 202.182C94.4665 202.182 94.1272 202.182 93.7783 202.191C93.6427 200.756 93.5748 199.301 93.5748 197.866Z" fill="#AFE0DF"/>
<path fill-rule="evenodd" clip-rule="evenodd" d="M458.498 265.409L439.983 236.091C440.435 235.04 440.665 233.904 440.665 232.749C440.665 231.125 440.223 229.578 439.378 228.241L456.835 195.982C460.266 194.798 462.619 191.579 462.619 187.864C462.619 183.901 459.833 180.473 456.067 179.518L427.512 139.59C427.819 138.702 427.973 137.766 427.973 136.83C427.973 134.223 426.811 131.816 424.841 130.202L427.637 98.793C429.789 97.1887 431.067 94.677 431.067 91.9362C431.067 87.19 427.185 83.3318 422.41 83.3318C421.094 83.3318 419.826 83.6183 418.663 84.1818L386.111 70.2868C385.515 66.6196 382.595 63.726 378.905 63.153L367.068 36.0506C367.462 35.0574 367.664 33.9974 367.664 32.9183C367.664 28.172 363.782 24.3139 359.007 24.3139C356.413 24.3139 354.001 25.4599 352.368 27.3889H324.562L300.523 8.21286C300.312 3.64804 296.517 0 291.867 0C287.399 0 283.719 3.38064 283.258 7.69717L252.128 27.3603C250.937 26.7682 249.611 26.4435 248.256 26.4435C243.481 26.4435 239.599 30.3016 239.599 35.0479C239.599 37.9224 241.011 40.5295 243.308 42.1148V142.159C240.839 143.706 239.282 146.428 239.282 149.426C239.282 152.425 240.839 155.147 243.308 156.694V245.669C241.002 247.255 239.599 249.862 239.599 252.736C239.599 255.611 241.011 258.218 243.308 259.803V353.898C241.002 355.483 239.599 358.09 239.599 360.965C239.599 363.839 241.011 366.446 243.308 368.031V405.858C241.002 407.444 239.599 410.051 239.599 412.925C239.599 417.729 243.577 421.625 248.419 421.53L270.47 452.299C270.104 453.264 269.912 454.295 269.912 455.346C269.912 460.092 273.794 463.95 278.569 463.95C281.461 463.95 284.084 462.546 285.679 460.264H317.549C319.144 462.556 321.767 463.95 324.659 463.95C329.434 463.95 333.315 460.092 333.315 455.346C333.315 454.648 333.229 453.961 333.066 453.292L348.899 429.79C349.169 429.819 349.438 429.828 349.707 429.828C353.867 429.828 357.345 426.906 358.181 423.019L387.283 413.174C388.801 414.396 390.704 415.074 392.712 415.074C397.487 415.074 401.369 411.216 401.369 406.47C401.369 404.015 400.321 401.723 398.544 400.109L403.194 373.924C406.461 373.093 408.997 370.419 409.583 367.077L433.671 361.137C435.15 362.216 436.937 362.808 438.792 362.808C443.567 362.808 447.448 358.95 447.448 354.203C447.448 351.205 445.892 348.483 443.423 346.936V317.99C446.046 316.482 447.756 313.655 447.756 310.541C447.756 309.099 447.391 307.696 446.709 306.445L459.574 282.274C463.292 281.29 466.011 277.91 466.011 273.956C466.021 269.573 462.735 265.963 458.498 265.409ZM430.317 352.446L405.952 358.453C404.52 357.479 402.839 356.954 401.061 356.954C396.286 356.954 392.404 360.812 392.404 365.558C392.404 367.535 393.087 369.426 394.307 370.944L389.416 398.505C386.88 399.555 384.958 401.771 384.305 404.426L354.962 414.358C353.473 413.231 351.638 412.601 349.716 412.601C348.083 412.601 346.517 413.049 345.162 413.88L326.129 404.684C325.629 401.007 322.785 398.047 319.144 397.369L312.283 374C313.657 372.444 314.445 370.428 314.445 368.318C314.445 367.077 314.167 365.854 313.657 364.727L326.561 344.94C331.173 344.759 334.862 340.967 334.862 336.336C334.862 331.589 330.981 327.731 326.205 327.731C321.43 327.731 317.549 331.589 317.549 336.336C317.549 337.73 317.885 339.086 318.529 340.308L305.875 359.704C303.262 359.666 300.84 360.802 299.207 362.722L255.731 356.581C254.972 355.292 253.886 354.222 252.589 353.478V263.356L288.513 303.818C288.485 304.105 288.475 304.382 288.475 304.668C288.475 309.415 292.357 313.273 297.132 313.273C301.369 313.273 304.914 310.226 305.654 306.225L326.743 293.342C327.916 293.915 329.222 294.221 330.539 294.221C332.316 294.221 334.026 293.676 335.468 292.683L363.753 304.554C364.436 308.632 368.01 311.745 372.295 311.745C377.07 311.745 380.952 307.887 380.952 303.14C380.952 298.394 377.07 294.536 372.295 294.536C370.517 294.536 368.807 295.08 367.366 296.073L339.08 284.203C338.725 282.093 337.581 280.192 335.9 278.874L338.667 252.163C341.578 250.74 343.529 247.761 343.529 244.428C343.529 239.682 339.647 235.824 334.872 235.824C330.097 235.824 326.215 239.682 326.215 244.428C326.215 247.054 327.445 249.518 329.453 251.132L326.676 277.929C323.842 279.342 321.93 282.264 321.882 285.502L302.07 297.611C300.639 296.618 298.928 296.083 297.141 296.083C296.2 296.083 295.277 296.236 294.403 296.522L256.807 254.178C256.893 253.701 256.932 253.214 256.932 252.727C256.932 249.614 255.231 246.787 252.599 245.278V156.694C255.068 155.147 256.624 152.425 256.624 149.426V149.378L296.719 122.859C297.814 123.346 299.005 123.603 300.235 123.603C303.752 123.603 306.797 121.56 308.142 118.504L346.872 115.725C348.486 117.415 350.725 118.38 353.127 118.38C357.902 118.38 361.784 114.522 361.784 109.775C361.784 108.505 361.496 107.245 360.957 106.108L377.541 80.2664H377.56C379.318 80.2664 381.019 79.7316 382.441 78.7575L413.753 92.1272C413.821 95.25 415.598 98.0481 418.269 99.4997L415.636 129.047C414.272 129.687 413.09 130.68 412.226 131.912H375.225C373.602 129.983 371.18 128.837 368.586 128.837C363.811 128.837 359.929 132.695 359.929 137.441C359.929 138.74 360.218 139.991 360.775 141.137L348.179 172.012C344.144 172.737 341.069 176.261 341.069 180.482C341.069 185.229 344.951 189.087 349.726 189.087C354.501 189.087 358.383 185.229 358.383 180.482C358.383 178.668 357.806 176.93 356.768 175.478L368.778 146.046C372.132 145.979 375.043 144.021 376.417 141.127H411.822C413.34 143.735 416.184 145.434 419.316 145.434C419.633 145.434 419.95 145.415 420.268 145.377L446.997 182.746C445.911 184.207 445.296 185.993 445.296 187.855C445.296 190.023 446.123 192.085 447.554 193.642L431.028 224.182C427.743 224.545 424.985 226.732 423.871 229.759L401.128 234.63C399.678 233.598 397.948 233.045 396.123 233.045C391.348 233.045 387.466 236.903 387.466 241.649C387.466 243.578 388.11 245.421 389.272 246.92L382.383 269.324C378.684 270.318 376.023 273.641 376.023 277.623C376.023 282.369 379.904 286.228 384.68 286.228C389.455 286.228 393.336 282.369 393.336 277.623C393.336 275.551 392.577 273.574 391.251 272.027L398.015 250.053C401.349 249.318 403.963 246.663 404.626 243.32L425.85 238.774C427.464 240.398 429.683 241.343 432.008 241.343C432.124 241.343 432.239 241.343 432.354 241.334L450.052 269.353C449.188 270.709 448.717 272.304 448.717 273.937C448.717 275.933 449.409 277.843 450.648 279.352L438.638 301.928C434.093 302.185 430.471 305.938 430.471 310.522C430.471 313.397 431.884 316.004 434.18 317.589V346.917C432.181 348.168 430.788 350.164 430.317 352.446ZM324.659 446.732C321.526 446.732 318.682 448.422 317.164 451.039H286.063C284.545 448.432 281.701 446.732 278.569 446.732C278.348 446.732 278.117 446.741 277.897 446.76L256.163 416.43C256.653 415.332 256.922 414.129 256.922 412.916C256.922 409.802 255.222 406.976 252.589 405.467V368.404C253.694 367.774 254.636 366.905 255.366 365.864L297.91 371.871C298.957 374.143 300.965 375.881 303.386 376.588L310.506 400.845C309.468 402.296 308.892 404.044 308.892 405.839C308.892 410.586 312.773 414.444 317.549 414.444C319.22 414.444 320.854 413.957 322.237 413.059L341.107 422.179C341.184 422.838 341.338 423.478 341.559 424.108L326.225 446.875C325.706 446.779 325.187 446.732 324.659 446.732ZM252.589 42.4968C255.193 40.9974 256.893 38.2089 256.922 35.1243L287.629 16.1201C288.907 16.8364 290.368 17.2184 291.876 17.2184C293.135 17.2184 294.374 16.9414 295.508 16.4162L316.088 32.6604L295.594 56.3536C295.181 56.2963 294.768 56.2676 294.345 56.2676C289.57 56.2676 285.689 60.1258 285.689 64.872C285.689 69.6183 289.57 73.4764 294.345 73.4764C299.121 73.4764 303.002 69.6183 303.002 64.872C303.002 64.0221 302.877 63.1817 302.627 62.37L324.928 36.5854H351.157C352.55 39.5363 355.548 41.5036 358.988 41.5036H358.988C359.103 41.5036 359.218 41.5036 359.324 41.494L370.383 66.8106C369.422 68.224 368.884 69.9048 368.884 71.6333C368.884 72.8939 369.172 74.1449 369.701 75.2813L353.098 101.152C349.447 101.152 346.315 103.377 345.047 106.595L306.759 109.346C305.135 107.483 302.762 106.376 300.216 106.376C295.441 106.376 291.559 110.234 291.559 114.98V115.171L252.58 140.956V42.4968H252.589ZM399.207 216.447C403.982 216.447 407.864 212.589 407.864 207.842C407.864 206.133 407.345 204.471 406.394 203.058L414.484 180.721C418.759 180.205 422.083 176.567 422.083 172.174C422.083 167.428 418.202 163.569 413.427 163.569C408.652 163.569 404.77 167.428 404.77 172.174C404.77 173.797 405.221 175.364 406.077 176.72L397.891 199.334C394.71 199.821 392.078 202.046 391.03 205.016L356.97 209.915C355.394 207.527 352.675 205.999 349.716 205.999C348.275 205.999 346.882 206.353 345.642 207.012L311.63 185.123C311.179 180.797 307.489 177.407 303.012 177.407C298.237 177.407 294.355 181.265 294.355 186.012C294.355 187.406 294.701 188.791 295.354 190.013L284.122 223.724C280.25 224.583 277.339 228.021 277.339 232.128C277.339 236.874 281.221 240.732 285.996 240.732C290.771 240.732 294.653 236.874 294.653 232.128C294.653 230.189 294.009 228.356 292.837 226.856L303.588 194.597C304.943 194.501 306.259 194.091 307.422 193.403L341.059 215.053C341.3 219.589 345.085 223.208 349.707 223.208C352.675 223.208 355.433 221.661 357.009 219.226L393.183 214.021C394.787 215.568 396.93 216.447 399.207 216.447ZM380.961 329.899C380.961 325.153 384.843 321.295 389.618 321.295C394.393 321.295 398.284 325.153 398.265 329.889C398.265 334.454 394.681 338.198 390.166 338.484L380.663 359.016C381.451 360.334 381.874 361.843 381.874 363.409C381.874 368.156 377.992 372.014 373.217 372.014C371.488 372.014 369.806 371.498 368.394 370.553L345.258 380.217C344.566 384.285 341.002 387.389 336.717 387.389C331.941 387.389 328.06 383.531 328.06 378.785C328.06 374.038 331.941 370.18 336.717 370.18C338.494 370.18 340.214 370.734 341.655 371.727L364.657 362.12C365.252 358.253 368.432 355.216 372.391 354.843L382.028 334.034C381.336 332.774 380.961 331.351 380.961 329.899Z" fill="#FCE7A4"/>
</svg>
