<svg width="162" height="331" viewBox="0 0 162 331" fill="none" xmlns="http://www.w3.org/2000/svg">
<path fill-rule="evenodd" clip-rule="evenodd" d="M156.239 188.849L143.065 167.988C143.386 167.24 143.55 166.432 143.55 165.61C143.55 164.454 143.236 163.354 142.634 162.402L155.056 139.449C157.497 138.606 159.171 136.316 159.171 133.673C159.171 130.853 157.189 128.413 154.509 127.734L134.191 99.3236C134.41 98.6917 134.519 98.0257 134.519 97.3598C134.519 95.5048 133.692 93.7924 132.291 92.644L134.28 70.295C135.811 69.1535 136.721 67.3664 136.721 65.4162C136.721 62.039 133.959 59.2938 130.561 59.2938C129.624 59.2938 128.722 59.4977 127.895 59.8986L104.733 50.0117C104.309 47.4024 102.231 45.3435 99.6055 44.9358L91.183 25.6514C91.4633 24.9447 91.6069 24.1905 91.6069 23.4226C91.6069 20.0455 88.845 17.3003 85.4472 17.3003C83.6014 17.3003 81.8855 18.1157 80.7233 19.4883H60.9386L43.8338 5.84376C43.6834 2.59572 40.983 0 37.6742 0C34.4952 0 31.8769 2.40546 31.5487 5.47683L9.39863 19.4679C8.55092 19.0466 7.60749 18.8156 6.64355 18.8156C3.24584 18.8156 0.483905 21.5608 0.483905 24.9379C0.483905 26.9832 1.48886 28.8383 3.12277 29.9663V101.151C1.36581 102.252 0.258301 104.189 0.258301 106.323C0.258301 108.456 1.36581 110.393 3.12277 111.494V174.803C1.48203 175.931 0.483905 177.786 0.483905 179.832C0.483905 181.877 1.48886 183.732 3.12277 184.86V251.812C1.48203 252.94 0.483905 254.795 0.483905 256.84C0.483905 258.886 1.48886 260.741 3.12277 261.869V288.784C1.48203 289.912 0.483905 291.767 0.483905 293.812C0.483905 297.23 3.31419 300.003 6.75976 299.935L22.4494 321.828C22.1896 322.515 22.0529 323.248 22.0529 323.996C22.0529 327.373 24.8148 330.118 28.2125 330.118C30.2703 330.118 32.1366 329.119 33.2715 327.495H55.948C57.0828 329.126 58.9492 330.118 61.007 330.118C64.4047 330.118 67.1666 327.373 67.1666 323.996C67.1666 323.5 67.1051 323.011 66.9888 322.535L78.2553 305.812C78.4467 305.833 78.6382 305.839 78.8296 305.839C81.7898 305.839 84.2645 303.76 84.8593 300.995L105.567 293.989C106.647 294.859 108.001 295.341 109.429 295.341C112.827 295.341 115.589 292.596 115.589 289.219C115.589 287.472 114.844 285.842 113.579 284.693L116.888 266.061C119.212 265.47 121.017 263.567 121.434 261.189L138.573 256.963C139.626 257.73 140.898 258.152 142.217 258.152C145.615 258.152 148.377 255.406 148.377 252.029C148.377 249.896 147.269 247.959 145.512 246.858V226.262C147.379 225.189 148.595 223.177 148.595 220.962C148.595 219.936 148.336 218.937 147.85 218.047L157.004 200.849C159.65 200.149 161.585 197.743 161.585 194.93C161.592 191.811 159.253 189.243 156.239 188.849ZM136.187 250.779L118.85 255.053C117.831 254.36 116.635 253.986 115.37 253.986C111.973 253.986 109.211 256.731 109.211 260.109C109.211 261.515 109.696 262.861 110.564 263.941L107.085 283.552C105.28 284.299 103.912 285.876 103.448 287.765L82.5691 294.831C81.5095 294.03 80.2037 293.581 78.8364 293.581C77.6742 293.581 76.5599 293.901 75.5959 294.492L62.0529 287.948C61.6974 285.332 59.6739 283.225 57.0828 282.743L52.2016 266.115C53.1792 265.008 53.7398 263.574 53.7398 262.072C53.7398 261.189 53.5415 260.319 53.1792 259.517L62.3606 245.438C65.6421 245.309 68.2673 242.611 68.2673 239.316C68.2673 235.939 65.5053 233.193 62.1076 233.193C58.7099 233.193 55.948 235.939 55.948 239.316C55.948 240.308 56.1873 241.273 56.6453 242.142L47.6417 255.943C45.7822 255.916 44.0594 256.725 42.8972 258.09L11.9623 253.721C11.4222 252.804 10.6497 252.043 9.72677 251.513V187.388L35.2882 216.178C35.2677 216.382 35.2609 216.579 35.2609 216.783C35.2609 220.16 38.0228 222.906 41.4205 222.906C44.4354 222.906 46.9581 220.738 47.4845 217.891L62.4905 208.724C63.3245 209.132 64.2543 209.349 65.1909 209.349C66.4556 209.349 67.6725 208.962 68.698 208.255L88.8245 216.702C89.3098 219.603 91.853 221.818 94.902 221.818C98.2998 221.818 101.062 219.073 101.062 215.696C101.062 212.319 98.2998 209.574 94.902 209.574C93.6373 209.574 92.4204 209.961 91.395 210.668L71.2685 202.221C71.0155 200.72 70.202 199.367 69.0056 198.43L70.9745 179.424C73.0459 178.411 74.4337 176.291 74.4337 173.92C74.4337 170.543 71.6718 167.798 68.2741 167.798C64.8764 167.798 62.1145 170.543 62.1145 173.92C62.1145 175.789 62.9895 177.542 64.4183 178.69L62.4426 197.757C60.4259 198.763 59.0654 200.842 59.0312 203.146L44.9345 211.762C43.9158 211.055 42.6989 210.674 41.4274 210.674C40.7574 210.674 40.1011 210.783 39.479 210.987L12.728 180.858C12.7895 180.518 12.8169 180.171 12.8169 179.825C12.8169 177.61 11.6068 175.598 9.73361 174.525V111.494C11.4906 110.393 12.5981 108.456 12.5981 106.323V106.289L41.1266 87.4186C41.9059 87.7652 42.7536 87.9486 43.6287 87.9486C46.1308 87.9486 48.298 86.4945 49.2551 84.3201L76.8128 82.3427C77.9613 83.5454 79.5542 84.2317 81.2633 84.2317C84.6611 84.2317 87.423 81.4865 87.423 78.1094C87.423 77.2056 87.2179 76.3087 86.835 75.5001L98.6348 57.1126H98.6484C99.8995 57.1126 101.11 56.7321 102.121 56.039L124.401 65.5521C124.449 67.7741 125.714 69.765 127.614 70.7979L125.741 91.8218C124.77 92.2771 123.93 92.9838 123.314 93.8604H96.9872C95.8318 92.4878 94.109 91.6723 92.2632 91.6723C88.8655 91.6723 86.1035 94.4175 86.1035 97.7947C86.1035 98.7188 86.3086 99.609 86.7051 100.424L77.7426 122.393C74.8713 122.909 72.6836 125.417 72.6836 128.42C72.6836 131.797 75.4455 134.542 78.8432 134.542C82.241 134.542 85.0029 131.797 85.0029 128.42C85.0029 127.129 84.5927 125.892 83.8544 124.859L92.3999 103.917C94.7858 103.869 96.8573 102.477 97.8349 100.418H123.027C124.107 102.273 126.131 103.482 128.36 103.482C128.585 103.482 128.811 103.469 129.036 103.441L148.055 130.031C147.283 131.07 146.845 132.341 146.845 133.666C146.845 135.208 147.433 136.676 148.452 137.784L136.693 159.514C134.355 159.773 132.393 161.329 131.6 163.483L115.418 166.948C114.386 166.214 113.155 165.82 111.856 165.82C108.459 165.82 105.697 168.565 105.697 171.943C105.697 173.315 106.155 174.627 106.982 175.693L102.08 191.635C99.4483 192.341 97.5546 194.706 97.5546 197.54C97.5546 200.917 100.317 203.662 103.714 203.662C107.112 203.662 109.874 200.917 109.874 197.54C109.874 196.065 109.334 194.658 108.39 193.558L113.203 177.922C115.575 177.399 117.435 175.51 117.907 173.132L133.008 169.897C134.157 171.052 135.736 171.725 137.391 171.725H137.391C137.473 171.725 137.555 171.725 137.637 171.718L150.229 191.655C149.614 192.62 149.279 193.755 149.279 194.917C149.279 196.337 149.771 197.696 150.653 198.769L142.108 214.833C138.874 215.017 136.297 217.687 136.297 220.949C136.297 222.994 137.302 224.849 138.936 225.977V246.845C137.514 247.735 136.522 249.155 136.187 250.779ZM61.007 317.867C58.7783 317.867 56.7547 319.069 55.6745 320.931H33.5449C32.4648 319.076 30.4412 317.867 28.2125 317.867C28.0553 317.867 27.8912 317.874 27.734 317.887L12.2699 296.306C12.6186 295.525 12.81 294.668 12.81 293.805C12.81 291.59 11.6 289.579 9.72677 288.505V262.134C10.513 261.685 11.1829 261.067 11.7025 260.326L41.9743 264.6C42.7195 266.217 44.1483 267.454 45.8711 267.957L50.9369 285.216C50.1985 286.249 49.7883 287.493 49.7883 288.77C49.7883 292.147 52.5503 294.893 55.948 294.893C57.1375 294.893 58.2997 294.546 59.2842 293.907L72.7109 300.397C72.7656 300.865 72.875 301.321 73.0323 301.769L62.1213 317.969C61.7521 317.901 61.383 317.867 61.007 317.867ZM9.72677 30.2381C11.5794 29.1713 12.7895 27.1871 12.81 24.9923L34.6593 11.4701C35.5685 11.9797 36.6077 12.2515 37.681 12.2515C38.5766 12.2515 39.4585 12.0545 40.2652 11.6807L54.9088 23.2392L40.3267 40.0977C40.0327 40.057 39.7388 40.0366 39.438 40.0366C36.0403 40.0366 33.2783 42.7818 33.2783 46.1589C33.2783 49.5361 36.0403 52.2813 39.438 52.2813C42.8357 52.2813 45.5976 49.5361 45.5976 46.1589C45.5976 45.5542 45.5087 44.9562 45.331 44.3786L61.1984 26.0319H79.8619C80.8531 28.1316 82.9861 29.5314 85.4336 29.5314C85.5156 29.5314 85.5976 29.5314 85.6728 29.5246L93.5416 47.5383C92.8579 48.544 92.4751 49.7399 92.4751 50.9698C92.4751 51.8668 92.6802 52.757 93.0562 53.5656L81.2428 71.9734C78.645 71.9734 76.4163 73.5567 75.5139 75.8466L48.2707 77.8036C47.1153 76.4786 45.4267 75.6903 43.615 75.6903C40.2173 75.6903 37.4554 78.4355 37.4554 81.8127V81.9486L9.71995 100.295V30.2381H9.72677ZM114.051 154.01C117.449 154.01 120.211 151.265 120.211 147.888C120.211 146.672 119.841 145.489 119.165 144.484L124.921 128.59C127.963 128.223 130.329 125.634 130.329 122.508C130.329 119.131 127.567 116.386 124.169 116.386C120.771 116.386 118.009 119.131 118.009 122.508C118.009 123.663 118.331 124.778 118.939 125.743L113.114 141.834C110.851 142.18 108.978 143.763 108.233 145.877L83.9979 149.362C82.8768 147.664 80.942 146.576 78.8364 146.576C77.8109 146.576 76.8197 146.828 75.9378 147.297L51.7367 131.722C51.4154 128.644 48.7902 126.232 45.6045 126.232C42.2067 126.232 39.4448 128.977 39.4448 132.354C39.4448 133.346 39.6909 134.332 40.1558 135.202L32.164 159.188C29.4089 159.8 27.3375 162.246 27.3375 165.168C27.3375 168.545 30.0994 171.29 33.4971 171.29C36.8948 171.29 39.6567 168.545 39.6567 165.168C39.6567 163.788 39.1987 162.484 38.3647 161.417L46.0146 138.463C46.9786 138.395 47.9152 138.103 48.7424 137.614L72.6768 153.018C72.8477 156.246 75.5412 158.821 78.8296 158.821C80.942 158.821 82.9041 157.72 84.0253 155.988L109.764 152.284C110.906 153.385 112.431 154.01 114.051 154.01ZM101.069 234.736C101.069 231.359 103.83 228.613 107.228 228.613C110.626 228.613 113.395 231.359 113.381 234.729C113.381 237.977 110.831 240.641 107.618 240.845L100.857 255.454C101.417 256.392 101.718 257.465 101.718 258.58C101.718 261.957 98.9561 264.702 95.5583 264.702C94.3278 264.702 93.1314 264.335 92.1264 263.662L75.6643 270.539C75.1721 273.434 72.6357 275.642 69.5867 275.642C66.189 275.642 63.4271 272.897 63.4271 269.52C63.4271 266.143 66.189 263.397 69.5867 263.397C70.8514 263.397 72.0752 263.792 73.1006 264.498L89.4671 257.662C89.8909 254.91 92.1538 252.75 94.9704 252.485L101.827 237.678C101.335 236.781 101.069 235.769 101.069 234.736Z" fill="#FCE7A4"/>
</svg>
