<svg width="164" height="331" viewBox="0 0 164 331" fill="none" xmlns="http://www.w3.org/2000/svg">
<path d="M149.528 5.70958L149.342 5.53137L149.046 5.38743C145.846 3.28313 142.336 1.77516 138.605 0.890948L138.226 0.76757H138.074C135.75 0.25349 133.357 -0.00012207 130.964 -0.00012207C121.91 -0.00012207 113.227 3.74237 107.028 10.2883C105.552 10.6516 104.124 11.152 102.766 11.7963C102.235 12.0019 101.821 12.1938 101.497 12.3858C100.711 12.8587 99.9385 13.3659 99.2213 13.8869C98.9385 14.0925 98.6489 14.3118 98.3524 14.5449L98.2282 14.6409C98.18 14.682 98.1317 14.7163 98.0903 14.7505C98.042 14.7917 97.9869 14.8328 97.9386 14.8739C88.5185 16.6766 79.9259 21.6803 73.6918 28.9939C69.8369 33.5178 66.9543 38.8711 65.313 44.5671C58.3617 44.6288 51.6173 47.117 46.3004 51.5929C41.3628 55.7535 37.9078 61.3878 36.4666 67.5979C31.5289 68.4067 27.0051 70.8469 23.5984 74.5482C19.8124 78.6609 17.7298 84.0073 17.7298 89.5868C17.7298 91.3004 17.9298 93.0071 18.316 94.6659L18.978 97.483L21.8744 97.2088C27.4051 96.6879 32.522 94.1449 36.2804 90.0597C37.1562 89.1138 37.9354 88.0993 38.625 87.0232C39.4733 88.7848 40.4939 90.471 41.6731 92.0338C35.9976 93.624 30.6738 96.4 26.1224 100.163C20.0262 105.201 15.4886 111.795 13.0059 119.218C12.9646 119.335 12.9301 119.444 12.9025 119.54C11.544 123.715 10.8475 128.074 10.8475 132.509C10.8475 139.226 12.4749 145.909 15.5575 151.838C18.0815 156.691 21.5847 161.044 25.7983 164.587C20.6813 166.884 16.2954 170.482 12.9715 175.136L11.9784 176.583V176.61C11.7233 177.014 11.475 177.426 11.2336 177.851L10.3371 178.331V178.42C6.48222 180.874 3.42723 184.499 1.67562 188.736C-0.37253 193.691 -0.551829 199.223 1.16531 204.302C1.717 205.933 2.45488 207.489 3.35138 208.935L4.88232 211.389L7.53732 210.21C8.67518 209.703 9.77167 209.107 10.7992 208.428C13.5438 213.542 17.6539 217.846 22.6605 220.821C20.7365 224.975 19.7228 229.54 19.7228 234.132C19.7228 242.371 22.8881 250.178 28.6464 256.135C33.9288 261.598 40.8732 264.97 48.3693 265.738C48.3762 266.649 48.4175 267.568 48.4865 268.466L48.4934 268.541C49.0106 275.073 51.2312 281.4 54.9137 286.849C62.1132 297.501 74.1056 303.862 87.0082 303.862C87.2013 303.862 87.3875 303.862 87.5806 303.855C90.1391 311.278 94.8422 317.667 101.235 322.403C108.062 327.455 116.151 330.121 124.64 330.121C146.246 330.121 163.824 312.649 163.824 291.174V32.661C163.824 21.8722 158.487 11.81 149.528 5.70958ZM150.673 296.61C149.915 295.075 148.977 293.628 147.887 292.312L146.039 290.078L143.563 291.592C138.833 294.485 135.371 299.009 133.812 304.328C132.247 309.681 132.743 315.391 135.226 320.395C135.419 320.778 135.619 321.155 135.833 321.532C132.254 322.842 128.495 323.507 124.633 323.507C117.662 323.507 111 321.334 105.366 317.214C100.366 313.561 96.5939 308.694 94.3595 303.026C100.097 301.819 105.511 299.304 110.152 295.691C118.627 289.098 123.827 279.597 124.806 268.946C124.909 267.801 124.965 266.643 124.965 265.512C124.978 260.659 124.075 255.915 122.289 251.405C121.689 245.935 119.075 240.897 114.924 237.217C110.814 233.57 105.511 231.562 100.001 231.562C99.9109 231.562 99.8212 231.562 99.7247 231.562C98.0007 231.582 96.2835 231.802 94.6216 232.206L91.7942 232.898L92.1045 235.777C92.6975 241.268 95.3112 246.319 99.4695 250.007C103.58 253.653 108.883 255.662 114.393 255.662C114.482 255.662 114.572 255.662 114.669 255.662C115.344 255.655 116.027 255.614 116.71 255.545C117.772 258.753 118.31 262.091 118.303 265.498C118.303 266.437 118.255 267.396 118.172 268.342C117.365 277.157 113.055 285.019 106.042 290.475C101.228 294.225 95.4767 296.514 89.415 297.09L88.1323 297.213C87.753 297.227 87.3737 297.234 87.0014 297.234C82.5396 297.234 78.1605 296.301 74.1263 294.54C78.1053 294.307 81.9465 293.114 85.3325 291.051L85.8566 290.969C91.3459 290.112 96.2973 287.267 99.8006 282.963C103.324 278.624 105.083 273.168 104.738 267.602C104.635 265.895 104.331 264.202 103.842 262.564L103.007 259.795L100.132 260.241C97.0145 260.727 94.0906 261.838 91.4425 263.544C84.6705 267.911 80.7604 275.601 81.25 283.614C81.2914 284.286 81.3672 284.964 81.4707 285.636C78.8088 287.165 75.7952 287.966 72.6781 287.966C67.9887 287.966 63.589 286.164 60.2651 282.887C57.4377 278.617 55.6929 273.703 55.1826 268.637C58.1273 270.584 61.5271 271.838 65.0855 272.236C65.9268 272.332 66.7888 272.38 67.637 272.38C72.3816 272.38 76.9261 270.913 80.781 268.137C82.1741 267.129 83.4498 265.971 84.5739 264.682L86.4841 262.496L84.5601 260.323C80.8914 256.183 75.8158 253.551 70.2783 252.927C64.7062 252.296 59.1272 253.749 54.5827 257.026C53.6448 257.704 52.7552 258.452 51.9277 259.267H51.6932C37.7354 259.267 26.3844 247.985 26.3844 234.112C26.3844 232.055 26.6327 230.033 27.1223 228.066C28.5636 230.081 30.3359 231.856 32.3703 233.31C36.1976 236.031 40.7077 237.47 45.4177 237.47C46.0867 237.47 46.7694 237.443 47.4383 237.381C49.1485 237.223 50.845 236.874 52.4725 236.339L55.2378 235.434L54.6999 232.59C53.6793 227.161 50.6726 222.329 46.2384 218.977C41.7766 215.598 36.239 214.014 30.6393 214.522C29.2049 214.652 27.7774 214.919 26.3982 215.317C21.7571 212.65 18.0815 208.593 15.9092 203.753C15.9368 203.719 15.9644 203.685 15.992 203.651C16.1437 203.459 16.2954 203.267 16.4402 203.068C16.4678 203.027 16.4954 202.993 16.523 202.952L16.5506 202.91C16.6609 202.76 16.7643 202.609 16.8747 202.458C16.916 202.403 16.9505 202.348 16.985 202.293L17.0333 202.218C17.116 202.095 17.1988 201.971 17.2815 201.841C17.3298 201.773 17.3712 201.697 17.4126 201.629L17.4608 201.546C17.5298 201.437 17.5988 201.32 17.6677 201.211C17.7091 201.142 17.7505 201.067 17.7919 200.998L17.8263 200.936C17.8953 200.813 17.9643 200.696 18.0332 200.573C18.0884 200.477 18.1367 200.381 18.1918 200.278C18.2539 200.155 18.3229 200.038 18.3849 199.915C18.4332 199.819 18.4815 199.716 18.5297 199.62C18.5918 199.497 18.647 199.374 18.709 199.25C18.7573 199.147 18.8056 199.051 18.847 198.949C18.9021 198.825 18.9573 198.695 19.0125 198.565C19.0538 198.462 19.0952 198.366 19.1366 198.27C19.1918 198.14 19.24 198.003 19.2952 197.872L19.3021 197.845C19.3366 197.756 19.3711 197.66 19.4056 197.578C19.4538 197.441 19.5021 197.303 19.5504 197.166L19.5711 197.112C19.5986 197.036 19.6262 196.961 19.6538 196.879C19.7021 196.735 19.7504 196.584 19.7917 196.447L19.8124 196.378C19.8331 196.31 19.8538 196.241 19.8745 196.173C19.9228 196.015 19.9641 195.857 20.0124 195.686L20.0331 195.617C20.0469 195.562 20.0607 195.514 20.0745 195.46C20.1365 195.22 20.1986 194.98 20.2538 194.733C20.6469 192.992 20.833 191.196 20.7917 189.4C20.7434 187.138 20.3503 184.904 19.6262 182.758C19.4262 182.162 19.1918 181.566 18.9435 180.99L18.8883 180.867C18.8194 180.716 18.7573 180.572 18.6884 180.428C18.6677 180.387 18.647 180.346 18.6263 180.305V178.653C22.2123 173.807 27.3706 170.407 33.2461 169.043C33.253 169.043 33.253 169.043 33.2599 169.043C34.0529 169.043 34.846 169.105 35.6252 169.221C41.1145 170.044 45.8108 173.772 47.8865 178.879C42.3283 184.28 39.9767 192.17 41.7352 199.785C42.3834 202.581 43.5558 205.207 45.2246 207.578C46.2108 208.983 47.3624 210.272 48.6382 211.41L50.8036 213.343L53.0173 211.465C57.2446 207.887 59.9685 202.89 60.6926 197.393C61.4167 191.861 60.0444 186.302 56.8239 181.73C56.286 180.969 55.6998 180.236 55.0723 179.551C54.1206 175.561 52.0794 171.922 49.1416 168.995C45.7212 165.581 41.3904 163.402 36.6114 162.689C35.7769 162.565 34.9149 162.483 34.046 162.456C33.984 162.422 33.9288 162.38 33.8667 162.339C23.6674 155.814 17.5505 144.751 17.4884 132.721C18.3367 133.852 19.2883 134.901 20.3434 135.861C24.4811 139.624 29.8601 141.694 35.4735 141.694C37.1975 141.694 38.9147 141.495 40.5835 141.111L43.4178 140.453L43.142 137.574C42.6179 132.077 40.0594 126.991 35.9493 123.256C31.8255 119.506 26.481 117.436 20.8882 117.422C23.1019 112.761 26.3362 108.608 30.3566 105.29C35.5563 100.992 41.8317 98.2713 48.5141 97.4145L49.183 97.3254C51.2243 97.1471 53.2931 97.1472 55.3344 97.3185C60.3271 97.7366 65.0717 99.1555 69.43 101.52C72.685 103.289 75.609 105.53 78.1536 108.19C73.2919 111.199 69.1266 115.263 66.0233 120.061C62.0167 126.251 59.8996 133.427 59.8996 140.816C59.8996 143.215 60.1272 145.621 60.5685 147.966C62.0926 155.999 66.2302 163.415 72.2712 168.974C70.8644 173.745 71.1127 178.858 72.9884 183.506C75.0779 188.681 79.0156 192.869 84.0705 195.288C85.6221 196.029 87.2565 196.598 88.9254 196.968L91.7666 197.598L92.7734 194.884C95.9456 186.336 93.4699 176.542 86.6083 170.496C85.0635 169.132 83.3326 167.994 81.4569 167.096C80.7604 166.76 80.0363 166.459 79.2984 166.198C73.9953 162.223 70.0714 156.726 68.0715 150.515C76.733 150.68 84.7532 154.21 90.7184 160.502C94.9181 164.93 97.7317 170.414 98.8558 176.356C99.2213 178.296 99.4144 180.291 99.4144 182.279C99.4144 186.953 98.4144 191.457 96.449 195.665C95.2767 198.174 93.7664 200.525 91.9597 202.67C87.3806 202.054 82.6499 202.876 78.5122 205.035C74.0228 207.379 70.4369 211.19 68.4094 215.762C68.0991 216.462 67.8163 217.202 67.5681 217.969C67.044 219.608 66.7061 221.301 66.575 222.987L66.3475 225.866L69.1887 226.483C70.7472 226.818 72.3471 226.99 73.9401 226.99C77.8433 226.99 81.6982 225.962 85.098 224.022C89.9667 221.246 93.5871 216.791 95.2905 211.472C95.6491 210.341 95.9249 209.182 96.1042 208.017C98.711 205.152 100.856 201.937 102.49 198.448C104.869 193.362 106.076 187.92 106.076 182.272C106.076 179.873 105.848 177.467 105.407 175.123C104.042 167.932 100.642 161.304 95.5732 155.951C93.3872 153.641 90.9735 151.646 88.3737 149.974L88.6702 149.761C93.1389 146.485 96.2146 141.694 97.3248 136.265C98.442 130.802 97.4628 125.154 94.5802 120.37C93.6906 118.903 92.6424 117.539 91.4493 116.312L91.2769 116.134C90.939 115.339 90.5735 114.557 90.1874 113.803C88.8909 111.233 87.3255 108.786 85.5187 106.517C81.9672 102.062 77.6295 98.4221 72.6367 95.7009C67.4577 92.8837 61.8305 91.2044 55.9067 90.704C53.7 90.519 51.4656 90.5052 49.2589 90.6629C44.866 86.3446 42.3696 80.4156 42.3696 74.2603C42.3696 61.9499 52.1208 51.867 64.3476 51.2296C64.3545 53.279 64.5269 55.3354 64.8579 57.3574L64.589 57.8989C62.0994 62.8341 61.5478 68.4889 63.0373 73.8285C64.5338 79.2024 67.9818 83.7948 72.7402 86.7627C74.2021 87.6744 75.7676 88.4147 77.3813 88.963L80.1328 89.9021L81.4362 87.3179C81.9603 86.2829 82.4016 85.2068 82.7533 84.1101C88.9529 87.9554 96.2284 90.046 103.538 90.046C111.827 90.046 119.717 87.5167 126.399 82.7255C131.488 82.6638 136.447 80.8543 140.391 77.6121C144.701 74.0684 147.508 69.0853 148.294 63.5812C148.535 61.8882 148.584 60.1677 148.432 58.4678L148.177 55.589L145.274 55.4519C143.301 55.3628 141.329 55.5273 139.419 55.9523C139.281 55.9797 139.136 56.014 138.998 56.0482L138.977 56.0071L137.846 56.3567C137.688 56.4047 137.529 56.4526 137.371 56.5075L137.35 56.5143C137.088 56.5966 136.826 56.6857 136.557 56.7816C136.343 56.857 136.136 56.9393 135.936 57.0215L135.853 57.049L135.791 57.0764C135.75 57.0969 135.709 57.1107 135.667 57.1312L135.578 57.1655C135.543 57.1792 135.509 57.1929 135.467 57.2135L135.391 57.2477C129.088 59.9278 124.44 65.2194 122.634 71.7791C122.627 71.7996 122.627 71.8133 122.62 71.8339C122.572 72.0121 122.523 72.1903 122.482 72.3685C122.441 72.533 122.399 72.7044 122.365 72.8757L122.323 73.0745C122.275 73.3076 122.234 73.5064 122.199 73.6846C122.192 73.7051 122.192 73.7257 122.185 73.7463C122.13 74.0479 122.089 74.322 122.047 74.5825C122.006 74.8909 121.965 75.2131 121.93 75.5764L121.916 75.7272C121.889 76.0356 121.868 76.3578 121.847 76.6799L121.841 76.8581C121.827 77.194 121.82 77.5093 121.82 77.8178V77.8315C116.427 81.4986 110.124 83.4247 103.531 83.4247C96.4077 83.4247 89.4357 81.0736 83.7878 76.7896C83.7878 76.7416 83.7878 76.6936 83.7809 76.6525L83.774 76.3852C83.7671 76.2001 83.7533 76.0151 83.7395 75.8368L83.7326 75.7203C83.7188 75.5078 83.6981 75.2885 83.6774 75.0692L83.6636 74.9252C83.6498 74.8155 83.6429 74.7059 83.6222 74.5893L83.6085 74.466C83.5947 74.37 83.5809 74.2672 83.5671 74.1712C83.5533 74.0684 83.5395 73.9725 83.5188 73.8765L83.5119 73.8422C83.4981 73.7531 83.4843 73.664 83.4705 73.5955L83.4567 73.5269C83.4292 73.3556 83.3947 73.1842 83.3602 73.0197L83.1464 71.9847L83.1257 71.9641C81.912 67.1181 79.0846 62.7929 75.1193 59.7427C74.5676 59.3178 73.9815 58.9065 73.3815 58.5295L73.1608 58.3924C73.0574 58.3307 72.947 58.2622 72.8436 58.2005C72.7471 58.1457 72.6574 58.0908 72.5816 58.0497L72.3126 57.8989C72.2574 57.8646 72.1954 57.8304 72.1402 57.8029C72.0437 57.7481 71.9471 57.7001 71.8506 57.6453L71.6713 57.5493H71.6644C71.6575 57.5493 71.6506 57.5425 71.6437 57.5425C71.2161 55.4382 70.9954 53.2722 70.9954 51.0993C70.9954 50.3933 71.0161 49.6736 71.0644 48.9676L71.1265 48.6935C72.3471 43.0454 74.9883 37.7196 78.7605 33.2916C82.2706 29.1722 86.6152 25.9437 91.5114 23.7846C90.1805 27.1364 89.6839 30.7761 90.0908 34.4089C90.2839 36.1088 90.6701 37.7881 91.2425 39.3921L92.2148 42.1201L95.0629 41.5306C100.497 40.3997 105.304 37.3152 108.579 32.8393C111.883 28.3291 113.358 22.7976 112.738 17.2387C112.662 16.5601 112.551 15.8884 112.42 15.2303C112.365 14.9493 112.303 14.6888 112.241 14.4352C113.993 12.6599 115.993 11.152 118.158 9.9456C116.868 11.8306 115.882 13.9211 115.269 16.142C114.765 17.9584 114.51 19.8433 114.51 21.742C114.51 24.7237 115.124 27.5956 116.331 30.2963C116.386 31.0571 116.475 31.8042 116.606 32.5171C116.717 33.1477 116.862 33.7783 117.027 34.3952C117.11 34.6968 117.199 35.0121 117.296 35.3137C119.413 42.0104 124.654 47.3911 131.316 49.7079C132.543 50.1397 133.826 50.4619 135.116 50.6675C135.171 50.6744 135.226 50.6812 135.281 50.6949L135.336 50.7018C136.667 50.9006 137.991 50.9897 139.302 50.9554L139.557 50.9486C139.777 50.9417 139.998 50.928 140.239 50.9143L143.15 50.7224L143.343 47.8298C143.384 47.1992 143.398 46.5686 143.391 45.9449C143.343 43.2305 142.791 40.5642 141.757 38.0212L141.743 37.9869C141.626 37.7059 141.501 37.418 141.343 37.0821L141.329 37.0479C141.308 36.993 141.281 36.945 141.26 36.8971C138.598 31.2696 133.881 27.1227 127.971 25.2103L127.951 25.2035C127.937 25.1966 127.93 25.1966 127.916 25.1898L127.868 25.1761C127.633 25.1007 127.399 25.0321 127.157 24.9636L126.999 24.9224C126.799 24.8676 126.599 24.8128 126.399 24.7648L126.358 24.7579C126.295 24.7442 126.233 24.7237 126.171 24.71C125.978 24.662 125.785 24.6208 125.592 24.5797L125.523 24.566C125.468 24.5523 125.42 24.5454 125.364 24.5317C125.102 24.4769 124.833 24.4289 124.565 24.3878C124.358 24.3535 124.144 24.3261 123.937 24.2987L123.758 24.2781C123.606 24.2576 123.461 24.2439 123.309 24.2233C123.261 24.2164 123.206 24.2164 123.158 24.2096L123.061 24.2027C122.937 24.189 122.806 24.1822 122.675 24.1685L122.413 24.1547C122.289 24.1479 122.172 24.141 122.041 24.1342L121.806 24.1273C121.675 24.1205 121.544 24.1205 121.413 24.1136C121.399 24.1136 121.385 24.1136 121.372 24.1136C121.247 23.3459 121.185 22.5577 121.185 21.7694C121.185 20.4602 121.358 19.1716 121.703 17.9241C123.434 11.6798 129.199 7.31351 135.722 7.31351C136.157 7.31351 136.591 7.33408 137.019 7.3752L137.184 7.43004H137.302C140.143 8.12918 142.819 9.29443 145.267 10.8915L145.439 11.0629L145.729 11.2C152.887 16.0666 157.149 24.0931 157.149 32.7022V92.5547C156.997 92.4108 156.852 92.2668 156.7 92.1229L156.914 91.6499L154.439 90.1283C149.715 87.222 144.101 86.1664 138.619 87.1603C133.102 88.161 128.192 91.1564 124.792 95.6049C123.751 96.9689 122.868 98.4495 122.165 100.005L120.979 102.644L123.454 104.166C126.992 106.346 131.068 107.497 135.233 107.497C136.584 107.497 137.943 107.374 139.281 107.134C144.798 106.133 149.708 103.138 153.108 98.6894C153.211 98.5523 153.314 98.4152 153.411 98.2781C155.811 101.102 157.156 104.68 157.156 108.402V151.516C151.963 143.928 144.129 138.308 135.095 135.929C134.826 135.861 134.557 135.792 134.288 135.724C133.254 131.234 130.819 127.128 127.337 124.051C123.158 120.356 117.772 118.348 112.165 118.416C110.441 118.437 108.724 118.656 107.062 119.061L104.242 119.753L104.552 122.625C105.476 131.2 111.386 138.541 119.62 141.331L120.144 141.502H120.158C122.316 142.174 124.558 142.51 126.84 142.51C126.93 142.51 127.02 142.51 127.116 142.51C128.709 142.489 130.295 142.304 131.833 141.954C132.371 142.064 132.895 142.187 133.398 142.324C147.391 146.005 157.162 158.638 157.162 173.046V224.433C156.369 225.77 155.411 226.99 154.294 228.073C151.122 231.157 146.929 232.933 142.488 233.063H142.467C142.294 233.07 142.129 233.07 141.957 233.07C132.226 233.07 124.309 225.201 124.309 215.529C124.309 213.356 124.702 211.245 125.482 209.244C125.985 207.942 126.64 206.701 127.447 205.549C127.551 205.494 127.647 205.433 127.744 205.378C127.826 205.33 127.916 205.275 127.999 205.227C128.095 205.165 128.192 205.111 128.295 205.042C128.378 204.987 128.461 204.939 128.537 204.884C128.633 204.823 128.73 204.761 128.826 204.693C128.909 204.638 128.992 204.583 129.068 204.528C129.164 204.459 129.254 204.398 129.35 204.329L129.378 204.309C129.447 204.261 129.523 204.206 129.592 204.158C129.675 204.096 129.764 204.035 129.847 203.966L129.868 203.952C129.95 203.891 130.026 203.829 130.102 203.774C130.185 203.705 130.275 203.637 130.371 203.562L130.412 203.527C130.475 203.472 130.543 203.424 130.606 203.376C130.688 203.308 130.771 203.239 130.854 203.171L130.888 203.143C130.957 203.089 131.026 203.027 131.088 202.972C131.164 202.904 131.24 202.835 131.316 202.766L131.378 202.712C131.44 202.657 131.502 202.602 131.564 202.54C131.633 202.479 131.702 202.41 131.771 202.348L131.881 202.245C131.93 202.198 131.985 202.15 132.033 202.102C132.102 202.033 132.178 201.958 132.247 201.889L132.33 201.807C132.385 201.752 132.433 201.704 132.488 201.649C132.557 201.574 132.633 201.498 132.702 201.423L132.792 201.327C132.84 201.279 132.881 201.231 132.923 201.183C132.992 201.108 133.054 201.032 133.123 200.964L133.233 200.84C133.274 200.799 133.309 200.751 133.35 200.71C133.419 200.628 133.488 200.546 133.557 200.463L133.654 200.347C133.688 200.306 133.723 200.265 133.757 200.217C133.84 200.114 133.923 200.011 134.005 199.901L134.067 199.819C134.095 199.785 134.123 199.744 134.15 199.709C134.281 199.538 134.405 199.367 134.529 199.195C139.026 192.958 139.991 184.986 137.109 177.871C136.467 176.295 135.647 174.78 134.66 173.382L132.992 171.01L130.406 172.34C125.475 174.876 121.682 179.133 119.73 184.321C117.765 189.544 117.841 195.275 119.937 200.45C120.289 201.32 120.703 202.177 121.172 203.006C120.413 204.24 119.779 205.536 119.261 206.872C118.193 209.635 117.648 212.548 117.648 215.536C117.648 221.561 119.896 227.333 123.985 231.788C127.302 235.414 131.605 237.923 136.322 239.04C134.798 241.617 133.764 244.455 133.288 247.416C129.688 251.364 127.64 256.457 127.509 261.817C127.371 267.39 129.323 272.784 133.012 276.993C134.143 278.288 135.426 279.447 136.812 280.44L139.171 282.133L141.177 280.036C144.425 276.636 146.48 272.373 147.122 267.719C147.998 261.351 146.067 254.915 141.819 250.069C141.226 249.397 140.591 248.753 139.922 248.149C140.501 244.989 141.963 242.001 144.136 239.595C148.922 239.177 153.452 237.354 157.176 234.386V291.229C157.176 296.891 155.721 302.32 152.99 307.104C153.073 303.471 152.301 299.893 150.673 296.61ZM66.5819 140.789C66.5819 134.675 68.3335 128.739 71.6437 123.619C74.3539 119.431 78.0226 115.928 82.3189 113.406C83.0223 114.496 83.6705 115.613 84.2498 116.758C84.436 117.128 84.6153 117.505 84.7946 117.882C81.5741 120.994 79.3398 125.038 78.4433 129.431C77.3261 134.894 78.3053 140.542 81.1879 145.327C81.4638 145.786 81.7603 146.238 82.0706 146.677C77.5054 144.826 72.5747 143.86 67.4646 143.86C67.2164 143.86 66.975 143.86 66.7267 143.867C66.6302 142.845 66.5819 141.81 66.5819 140.789Z" fill="#AFE0DF"/>
</svg>
